<svg width="31" height="31" viewBox="0 0 31 31" fill="none" xmlns="http://www.w3.org/2000/svg">
    <g clip-path="url(#clip0_981_142)">
        <path
            d="M15.25 30.6899C23.5343 30.6899 30.25 23.9742 30.25 15.6899C30.25 7.40561 23.5343 0.68988 15.25 0.68988C6.96573 0.68988 0.25 7.40561 0.25 15.6899C0.25 23.9742 6.96573 30.6899 15.25 30.6899Z"
            fill="#F0F0F0" />
        <path
            d="M15.25 0.68988C9.30309 0.68988 4.16465 4.15072 1.7384 9.16816H28.7615C26.3354 4.15072 21.1969 0.68988 15.25 0.68988Z"
            fill="#338AF3" />
        <path
            d="M15.2499 30.6899C21.1967 30.6899 26.3352 27.2291 28.7615 22.2116H1.73828C4.16453 27.2291 9.30297 30.6899 15.2499 30.6899Z"
            fill="#338AF3" />
        <path
            d="M19.7333 15.6899L17.9014 16.5516L18.8769 18.3258L16.8877 17.9452L16.6356 19.9547L15.25 18.4768L13.8644 19.9547L13.6124 17.9452L11.6231 18.3257L12.5986 16.5516L10.7667 15.6899L12.5987 14.8281L11.6231 13.054L13.6123 13.4345L13.8645 11.425L15.25 12.903L16.6357 11.425L16.8877 13.4345L18.877 13.054L17.9015 14.8282L19.7333 15.6899Z"
            fill="#FFDA44" />
    </g>
    <defs>
        <clipPath id="clip0_981_142">
            <rect width="30" height="30" fill="white" transform="translate(0.25 0.68988)" />
        </clipPath>
    </defs>
</svg>