<svg width="48" height="38" viewBox="0 0 48 38" fill="none" xmlns="http://www.w3.org/2000/svg">
    <path
        d="M39.3376 5.18046C39.3246 5.15648 39.3033 5.138 39.2776 5.12851C36.4203 3.83103 33.4052 2.90548 30.3076 2.37499C30.2797 2.36994 30.251 2.37368 30.2254 2.38566C30.1999 2.39765 30.1788 2.41728 30.1651 2.44179C29.7542 3.17974 29.3812 3.93773 29.0476 4.71288C25.7067 4.21107 22.3084 4.21107 18.9676 4.71288C18.6326 3.93582 18.2545 3.17763 17.8351 2.44179C17.8206 2.41801 17.7994 2.39899 17.774 2.38711C17.7487 2.37523 17.7203 2.37101 17.6926 2.37499C14.5895 2.90309 11.5691 3.8287 8.70757 5.12851C8.68247 5.13903 8.66145 5.15724 8.64757 5.18046C2.93257 13.634 1.36507 21.8723 2.13007 30.0141C2.13224 30.0345 2.13869 30.0544 2.14902 30.0723C2.15935 30.0901 2.17333 30.1057 2.19007 30.118C5.51905 32.5546 9.24196 34.4143 13.2001 35.6176C13.2285 35.6263 13.259 35.6259 13.2873 35.6166C13.3155 35.6073 13.3401 35.5895 13.3576 35.5656C14.2068 34.4215 14.9594 33.2101 15.6076 31.9437C15.6162 31.9263 15.6211 31.9073 15.622 31.8879C15.6228 31.8685 15.6197 31.8492 15.6126 31.8311C15.6056 31.813 15.5948 31.7965 15.5811 31.7827C15.5673 31.7688 15.5508 31.758 15.5326 31.7508C14.3435 31.2999 13.1924 30.7564 12.0901 30.1254C12.0706 30.1136 12.0543 30.0973 12.0425 30.078C12.0307 30.0586 12.0237 30.0367 12.0223 30.0142C12.0208 29.9916 12.0248 29.9691 12.034 29.9484C12.0432 29.9277 12.0573 29.9095 12.0751 29.8953C12.3076 29.7246 12.5401 29.5465 12.7576 29.3684C12.7768 29.3517 12.8003 29.3407 12.8256 29.3368C12.8508 29.3329 12.8766 29.3361 12.9001 29.3461C20.1151 32.6043 27.9301 32.6043 35.0626 29.3461C35.0853 29.3351 35.1108 29.3306 35.136 29.3333C35.1612 29.3359 35.1851 29.3455 35.2051 29.3609C35.4226 29.5391 35.6551 29.7246 35.8876 29.8953C35.9054 29.9095 35.9194 29.9277 35.9286 29.9484C35.9378 29.9691 35.9418 29.9916 35.9404 30.0142C35.9389 30.0367 35.932 30.0586 35.9202 30.078C35.9084 30.0973 35.892 30.1136 35.8726 30.1254C34.7731 30.7596 33.6215 31.3009 32.4301 31.7434C32.4119 31.7506 32.3954 31.7614 32.3816 31.7752C32.3678 31.789 32.3571 31.8055 32.35 31.8236C32.343 31.8418 32.3398 31.8611 32.3407 31.8805C32.3415 31.8999 32.3464 31.9189 32.3551 31.9363C33.0146 33.1964 33.7666 34.407 34.6051 35.5582C34.6225 35.5821 34.6471 35.5999 34.6754 35.6092C34.7036 35.6185 34.7341 35.6189 34.7626 35.6101C38.7321 34.4122 42.4658 32.5523 45.8026 30.1105C45.8197 30.0986 45.8339 30.0832 45.8443 30.0652C45.8546 30.0472 45.8609 30.0272 45.8626 30.0066C46.7776 20.6031 44.3176 12.4316 39.3376 5.18046ZM16.6876 25.0562C14.5126 25.0562 12.7276 23.082 12.7276 20.6625C12.7276 18.243 14.4826 16.2613 16.6876 16.2613C18.9151 16.2613 20.6851 18.2504 20.6476 20.6551C20.6476 23.082 18.8926 25.0562 16.6876 25.0562ZM31.3426 25.0562C29.1676 25.0562 27.3826 23.082 27.3826 20.6625C27.3826 18.243 29.1301 16.2613 31.3426 16.2613C33.5701 16.2613 35.3401 18.2504 35.3026 20.6551C35.3026 23.082 33.5626 25.0562 31.3426 25.0562Z"
        fill="#F1F1F1" />
</svg>