<svg width="47" height="48" viewBox="0 0 47 48" fill="none" xmlns="http://www.w3.org/2000/svg">
    <g clip-path="url(#clip0_194_46)">
        <path
            d="M23.5 0.75C10.5181 0.75 0 11.1562 0 24C0 36.8438 10.5181 47.25 23.5 47.25C36.4819 47.25 47 36.8438 47 24C47 11.1562 36.4819 0.75 23.5 0.75ZM34.3972 16.5656C34.0466 20.2406 32.5115 29.1656 31.7345 33.2812C31.4028 35.025 30.7585 35.6063 30.1331 35.6625C28.7685 35.7844 27.7357 34.7719 26.4091 33.9094C24.3433 32.5688 23.1683 31.7344 21.169 30.4219C18.8474 28.9125 20.354 28.0781 21.6712 26.7188C22.0218 26.3625 28.0294 20.9531 28.1431 20.4656C28.1621 20.4 28.1716 20.175 28.0294 20.0531C27.8873 19.9312 27.6883 19.9781 27.5462 20.0062C27.3377 20.05 24.0338 22.2094 17.6345 26.4844C16.6995 27.1219 15.8499 27.4312 15.0855 27.4125C14.2421 27.3937 12.6312 26.9437 11.4278 26.5594C9.95907 26.0906 8.78407 25.8375 8.88831 25.0312C8.93884 24.6125 9.52319 24.1844 10.6413 23.7469C17.4892 20.7969 22.0565 18.85 24.3433 17.9062C30.8722 15.225 32.2272 14.7562 33.1085 14.7375C33.3075 14.7375 33.7339 14.7844 34.0181 15.0094C34.2037 15.1708 34.3219 15.3947 34.3498 15.6375C34.401 15.9441 34.4169 16.2555 34.3972 16.5656Z"
            fill="#F1F1F1" />
    </g>
    <defs>
        <clipPath id="clip0_194_46">
            <rect width="47" height="48" fill="white" />
        </clipPath>
    </defs>
</svg>