<svg width="42" height="48" viewBox="0 0 42 48" fill="none" xmlns="http://www.w3.org/2000/svg">
    <path
        d="M2.95312 5.95312C0 8.90625 0 13.6594 0 23.1562V24.8438C0 34.3406 0 39.0938 2.95312 42.0469C5.90625 45 10.6594 45 20.1562 45H21.8438C31.3406 45 36.0938 45 39.0469 42.0469C42 39.0938 42 34.3406 42 24.8438V23.1562C42 13.6594 42 8.90625 39.0469 5.95312C36.0938 3 31.3406 3 21.8438 3H20.1562C10.6594 3 5.90625 3 2.95312 5.95312ZM7.0875 15.7781H11.8781C12.0375 23.7938 15.5719 27.1875 18.375 27.8812V15.7781H22.8937V22.6875C25.6594 22.3875 28.5563 19.2375 29.5406 15.7781H34.0594C33.6844 17.5688 32.9531 19.275 31.8938 20.775C30.8344 22.275 29.4844 23.5406 27.9094 24.4875C29.6625 25.3594 31.2094 26.5875 32.4469 28.1062C33.6938 29.6156 34.5938 31.3688 35.1094 33.2531H30.1312C29.6812 31.6219 28.7437 30.15 27.4594 29.0437C26.1656 27.9281 24.5812 27.225 22.8937 27.0094V33.2531H22.35C12.7781 33.2531 7.3125 26.6906 7.0875 15.7781Z"
        fill="#F1F1F1" />
</svg>